<mxfile host="app.diagrams.net" modified="2021-02-07T14:28:03.936Z" agent="5.0 (Windows NT 10.0; Win64; x64) AppleWebKit/537.36 (KHTML, like Gecko) Chrome/88.0.4324.150 Safari/537.36 Edg/88.0.705.63" etag="zB1CesacLQaBKdWda0rO" version="14.2.9" type="github">
  <diagram id="cT-N5-rRiJBI2SwcwNPG" name="Page-1">
    <mxGraphModel dx="868" dy="482" grid="1" gridSize="10" guides="1" tooltips="1" connect="1" arrows="1" fold="1" page="1" pageScale="1" pageWidth="827" pageHeight="1169" math="0" shadow="0">
      <root>
        <mxCell id="0" />
        <mxCell id="1" parent="0" />
        <mxCell id="I3_27z-SmtsdhZhpI8Wi-1" value="" style="whiteSpace=wrap;html=1;aspect=fixed;" vertex="1" parent="1">
          <mxGeometry x="150" y="60" width="350" height="350" as="geometry" />
        </mxCell>
        <mxCell id="I3_27z-SmtsdhZhpI8Wi-2" value="" style="rounded=0;whiteSpace=wrap;html=1;" vertex="1" parent="1">
          <mxGeometry x="159.5" y="320" width="331" height="80" as="geometry" />
        </mxCell>
        <mxCell id="I3_27z-SmtsdhZhpI8Wi-11" value="数据" style="shape=dataStorage;whiteSpace=wrap;html=1;fixedSize=1;" vertex="1" parent="1">
          <mxGeometry x="169" y="329" width="91" height="60" as="geometry" />
        </mxCell>
        <mxCell id="I3_27z-SmtsdhZhpI8Wi-17" value="数据" style="shape=dataStorage;whiteSpace=wrap;html=1;fixedSize=1;" vertex="1" parent="1">
          <mxGeometry x="279.5" y="329" width="91" height="60" as="geometry" />
        </mxCell>
        <mxCell id="I3_27z-SmtsdhZhpI8Wi-18" value="数据" style="shape=dataStorage;whiteSpace=wrap;html=1;fixedSize=1;" vertex="1" parent="1">
          <mxGeometry x="390" y="329" width="91" height="60" as="geometry" />
        </mxCell>
      </root>
    </mxGraphModel>
  </diagram>
</mxfile>
